<?xml version="1.0" encoding="utf-8"?>
<svg width="50px" height="50px" viewBox="0 0 50 50" version="1.1" xmlns:xlink="http://www.w3.org/1999/xlink" xmlns="http://www.w3.org/2000/svg">
  <defs>
    <path d="M0 0L50 0L50 50L0 50L0 0Z" id="path_1" />
    <clipPath id="mask_1">
      <use xlink:href="#path_1" />
    </clipPath>
  </defs>
  <g id="svg-2">
    <g id="svg">
      <path d="M0 0L50 0L50 50L0 50L0 0Z" id="Фон" fill="#FFFFFF" fill-opacity="0" fill-rule="evenodd" stroke="none" />
      <g clip-path="url(#mask_1)">
        <g id="svg" transform="translate(-0.005859375 3)">
          <path d="M20.0059 0C18.3613 0 17.0059 1.35547 17.0059 3L17.0059 6L3.00586 6C1.36133 6 0.00585938 7.35547 0.00585938 9L0.00585938 23.8125C-0.00195313 23.875 -0.00195313 23.9375 0.00585938 24L0.00585938 41C0.00585938 42.6445 1.36133 44 3.00586 44L47.0059 44C48.6504 44 50.0059 42.6445 50.0059 41L50.0059 9C50.0059 7.35547 48.6504 6 47.0059 6L33.0059 6L33.0059 3C33.0059 1.35547 31.6504 0 30.0059 0L20.0059 0ZM20.0059 2L30.0059 2C30.5684 2 31.0059 2.4375 31.0059 3L31.0059 6L19.0059 6L19.0059 3C19.0059 2.4375 19.4434 2 20.0059 2L20.0059 2ZM3.00586 8L47.0059 8C47.5684 8 48.0059 8.4375 48.0059 9L48.0059 23.8438C48.0059 23.875 48.0059 23.9063 48.0059 23.9375L48.0059 24C48.0059 24.5625 47.5684 25 47.0059 25L3.00586 25C2.44336 25 2.00586 24.5625 2.00586 24C2.01367 23.9375 2.01367 23.875 2.00586 23.8125L2.00586 9C2.00586 8.4375 2.44336 8 3.00586 8L3.00586 8ZM25.0059 19C23.9004 19 23.0059 19.8945 23.0059 21C23.0059 22.1055 23.9004 23 25.0059 23C26.1113 23 27.0059 22.1055 27.0059 21C27.0059 19.8945 26.1113 19 25.0059 19L25.0059 19ZM2.00586 26.8125C2.32227 26.9258 2.6543 27 3.00586 27L47.0059 27C47.3574 27 47.6895 26.9258 48.0059 26.8125L48.0059 41C48.0059 41.5625 47.5684 42 47.0059 42L3.00586 42C2.44336 42 2.00586 41.5625 2.00586 41L2.00586 26.8125Z" id="Фигура" fill="#3293AA" fill-rule="evenodd" stroke="none" />
        </g>
      </g>
    </g>
  </g>
</svg>